<?xml version="1.0" encoding="UTF-8" standalone="no"?>
<!-- Created with Inkscape (http://www.inkscape.org/) -->

<svg
   xmlns:dc="http://purl.org/dc/elements/1.1/"
   xmlns:cc="http://creativecommons.org/ns#"
   xmlns:rdf="http://www.w3.org/1999/02/22-rdf-syntax-ns#"
   xmlns:svg="http://www.w3.org/2000/svg"
   xmlns="http://www.w3.org/2000/svg"
   xmlns:sodipodi="http://sodipodi.sourceforge.net/DTD/sodipodi-0.dtd"
   xmlns:inkscape="http://www.inkscape.org/namespaces/inkscape"
   version="1.1"
   id="svg230"
   width="366.66666"
   height="66.666664"
   viewBox="0 0 366.66666 66.666664"
   sodipodi:docname="calypso.svg"
   inkscape:version="0.92.3 (2405546, 2018-03-11)"
   inkscape:export-filename="/home/bruno/Projects/calypso/firebox/templates/images/calypso.png"
   inkscape:export-xdpi="96"
   inkscape:export-ydpi="96">
  <metadata
     id="metadata236">
    <rdf:RDF>
      <cc:Work
         rdf:about="">
        <dc:format>image/svg+xml</dc:format>
        <dc:type
           rdf:resource="http://purl.org/dc/dcmitype/StillImage" />
        <dc:title></dc:title>
      </cc:Work>
    </rdf:RDF>
  </metadata>
  <defs
     id="defs234" />
  <sodipodi:namedview
     pagecolor="#ffffff"
     bordercolor="#666666"
     borderopacity="1"
     objecttolerance="10"
     gridtolerance="10"
     guidetolerance="10"
     inkscape:pageopacity="0"
     inkscape:pageshadow="2"
     inkscape:window-width="1336"
     inkscape:window-height="735"
     id="namedview232"
     showgrid="false"
     inkscape:zoom="1.4964951"
     inkscape:cx="219.81265"
     inkscape:cy="99.187314"
     inkscape:window-x="30"
     inkscape:window-y="0"
     inkscape:window-maximized="1"
     inkscape:current-layer="svg230" />
  <path
     style="fill:#1a1797;fill-opacity:1;stroke:#f9fffd;stroke-width:0.5;stroke-miterlimit:4;stroke-dasharray:none;stroke-opacity:1"
     d="M 56.836952,65.309556 C 49.958881,63.526233 44.612544,60.100253 39.637444,54.287975 c -2.640271,-3.08457 -4.800492,-6.1003 -4.800492,-6.70164 0,-0.60133 5.55,-1.09331 12.333333,-1.09329 l 12.333333,4e-5 3.834498,4.80572 c 2.108973,2.64315 6.743922,6.15368 10.299882,7.801178 6.32794,2.93178 6.39638,3.0269 3.21919,4.47453 -4.50153,2.051033 -15.219107,2.979873 -20.020236,1.735043 z M 248.19069,37.493005 c 0.0107,-9.35 0.46123,-17.66018 1,-18.46706 2.13155,-3.19229 7.27145,-4.53294 17.37879,-4.53294 8.73818,0 11.19538,0.48838 14.14983,2.81236 3.23347,2.54344 3.53752,3.53151 3.17982,10.33333 l -0.39552,7.52098 -11.33333,0.66666 -11.33334,0.66667 -0.41317,7.29292 c -0.49943,8.81555 -1.86857,10.70708 -7.75008,10.70708 h -4.50341 z m 23.31292,-10.33333 c 0,-3.75269 -0.35037,-4.02536 -5.66667,-4.41 -5.4544,-0.39464 -5.66666,-0.26562 -5.66666,3.44445 0,5.05296 0.96888,5.83789 6.61901,5.36234 4.26107,-0.35864 4.71432,-0.78137 4.71432,-4.39679 z m -164.4,19.06666 c -2.26146,-2.26145 -2.18132,-26.92436 0.0936,-28.81239 1.98983,-1.65141 28.90253,-2.61262 31.31987,-1.11861 0.90926,0.56194 1.65318,2.1863 1.65318,3.60969 0,2.35877 -1.00376,2.58798 -11.33334,2.58798 h -11.33333 v 9.27725 9.27725 l 10.03128,0.38942 10.03128,0.38941 -2.10689,3 c -1.92624,2.74278 -3.16357,3 -14.43127,3 -7.80787,0 -12.91075,-0.58635 -13.9244,-1.6 z m 32.23707,-2.73333 c 1.03006,-2.38333 3.8049,-8.83333 6.16632,-14.33333 2.36141,-5.50001 4.8536,-10.69391 5.53818,-11.54202 0.68459,-0.84811 4.28588,-1.74811 8.00286,-2 l 6.75814,-0.45798 4.53256,9.00083 c 2.49291,4.95046 5.99182,12.30046 7.77535,16.33333 l 3.24277,7.3325 H 168.8884 c -11.91536,0 -12.43675,-0.1213 -11.75334,-2.73465 0.43806,-1.67512 2.19778,-3.03119 4.54184,-3.5 4.55255,-0.91051 4.54662,-0.82469 0.58084,-8.4094 l -3.12536,-5.97738 -2.25565,5.31072 c -1.2406,2.92089 -3.17223,7.56071 -4.29249,10.31071 -1.96406,4.82133 -2.27054,5 -8.57663,5 h -6.53979 z m 46.16293,-14.95309 c 0,-17.703312 0.21169,-19.3997181 2.57901,-20.6666661 1.41846,-0.759135 4.10054,-1.380245 5.96016,-1.380245 h 3.38116 l 0.37316,17.0000011 0.37318,17 6.85693,0.39805 c 6.07679,0.35276 6.92803,0.76994 7.48177,3.66667 l 0.62484,3.26861 h -13.8151 -13.81511 z m 34.22223,18.39753 c -0.4889,-0.48888 -0.8889,-3.79834 -0.8889,-7.35434 0,-5.55229 -0.84744,-7.63009 -6,-14.71123 -3.3,-4.53517 -6.00044,-8.57571 -6.00098,-8.97898 -5.4e-4,-0.40327 3.1182,-0.65564 6.93053,-0.56081 5.85569,0.14565 7.38547,0.74172 9.85635,3.8405 l 2.92482,3.66808 2.22,-3.38813 c 1.84587,-2.81716 3.44343,-3.46437 9.47979,-3.8405 3.99289,-0.2488 7.25139,-0.15236 7.24111,0.2143 -0.0107,0.36667 -3.36202,4.82037 -7.4483,9.89711 -7.02648,8.7296 -7.40538,9.57971 -6.98313,15.66749 l 0.44648,6.43706 -5.44444,-8.3e-4 c -2.99445,-4.5e-4 -5.84445,-0.40083 -6.33333,-0.88972 z m 71.98442,-1.54943 c -1.21367,-1.34107 -2.20665,-2.81681 -2.20665,-3.27941 0,-0.4626 4.95,-1.01535 11,-1.22834 9.98202,-0.35142 11,-0.63404 11,-3.05393 0,-2.39268 -1.02131,-2.70748 -9.94043,-3.06393 -5.46723,-0.2185 -10.71723,-1.04197 -11.66667,-1.82993 -2.06593,-1.71458 -2.28481,-10.90442 -0.346,-14.52713 1.23494,-2.30749 2.90942,-2.57901 15.90478,-2.57901 11.42632,0 14.97144,0.44693 16.61974,2.09524 3.79495,3.79494 2.22579,4.57143 -9.23809,4.57143 -11.2,0 -11.33333,0.0392 -11.33333,3.33333 0,3.2171 0.30526,3.33334 8.75432,3.33334 12.04808,0 13.91234,1.22123 13.91234,9.11358 0,3.49419 -0.72,7.07308 -1.6,7.95308 -1.03416,1.03416 -6.3837,1.6 -15.12668,1.6 -11.4111,0 -13.87181,-0.38135 -15.73333,-2.43832 z m 39.73013,0.55697 c -3.62504,-2.65068 -4.61538,-21.86691 -1.38134,-26.80268 2.10336,-3.21014 2.65586,-3.31597 17.31204,-3.31597 18.83446,0 18.79918,-0.0306 18.79918,16.31241 0,10.24337 -0.36078,12.16637 -2.58817,13.79507 -3.61501,2.64337 -28.53013,2.65202 -32.14171,0.0112 z m 21.81128,-7.26806 c 1.15707,-0.73379 1.60786,-3.31887 1.33334,-7.64625 l -0.41474,-6.53767 h -6.66666 -6.66667 l -0.41745,5.81921 c -0.2296,3.20056 -0.0984,6.65056 0.29149,7.66666 0.78329,2.04123 9.64489,2.53449 12.54069,0.69805 z m -336.529268,3.19308 c -20.7597838,-3.76982 -20.3402618,-9.64812 1.048442,-14.69068 11.217077,-2.64452 15.379619,-2.41092 7.040872,0.39514 -10.086338,3.39413 -12.256452,4.98416 -10.563796,7.74003 1.972483,3.21147 9.975878,5.70763 22.539411,7.02977 l 10.716287,1.12774 -10.666666,0.0568 c -5.866667,0.0312 -14.918214,-0.71522 -20.11455,-1.65883 z m 19.11455,-1.66534 c -3.485121,-0.52795 -3.666667,-0.91635 -3.666667,-7.84455 0,-12.57681 7.905004,-24.3394551 19.657128,-29.2498061 5.688787,-2.37692603 19.556325,-2.44996003 24.993755,-0.13163 l 3.9842,1.698731 -4.53218,1.57993 C 64.551166,10.343657 57.313142,20.849465 57.313142,33.777375 v 7.3823 l -8.904762,-0.19978 c -4.897619,-0.10988 -10.554761,-0.44973 -12.571428,-0.75523 z"
     id="path240"
     inkscape:connector-curvature="0" />
</svg>
